<?xml version="1.0" encoding="UTF-8"?>
<svg xmlns="http://www.w3.org/2000/svg" xmlns:xlink="http://www.w3.org/1999/xlink" width="45px" height="50px" viewBox="0 0 45 49" version="1.1">
<g id="surface1">
<path style=" stroke:none;fill-rule:nonzero;fill:rgb(54.901961%,78.431373%,29.411765%);fill-opacity:1;" d="M 20.476562 0.621094 C 21.699219 -0.0703125 23.292969 -0.0742188 24.515625 0.621094 C 30.664062 4.058594 36.816406 7.488281 42.964844 10.925781 C 44.121094 11.570312 44.894531 12.84375 44.882812 14.160156 L 44.882812 34.832031 C 44.894531 36.203125 44.042969 37.507812 42.824219 38.136719 C 36.691406 41.554688 30.566406 44.976562 24.4375 48.390625 C 23.1875 49.097656 21.5625 49.042969 20.351562 48.28125 C 18.515625 47.226562 16.675781 46.179688 14.835938 45.125 C 14.460938 44.90625 14.035156 44.730469 13.773438 44.367188 C 14.007812 44.054688 14.425781 44.015625 14.765625 43.882812 C 15.535156 43.640625 16.238281 43.253906 16.941406 42.878906 C 17.121094 42.757812 17.339844 42.800781 17.507812 42.910156 C 19.082031 43.800781 20.636719 44.71875 22.214844 45.601562 C 22.550781 45.792969 22.890625 45.539062 23.179688 45.378906 C 29.195312 42.019531 35.21875 38.667969 41.230469 35.308594 C 41.453125 35.199219 41.578125 34.96875 41.558594 34.726562 C 41.5625 27.90625 41.5625 21.085938 41.5625 14.265625 C 41.585938 13.992188 41.425781 13.742188 41.175781 13.628906 C 35.066406 10.226562 28.960938 6.820312 22.855469 3.417969 C 22.636719 3.273438 22.351562 3.269531 22.136719 3.417969 C 16.027344 6.820312 9.921875 10.230469 3.816406 13.632812 C 3.566406 13.746094 3.398438 13.992188 3.429688 14.265625 C 3.429688 21.085938 3.429688 27.90625 3.429688 34.726562 C 3.40625 34.96875 3.539062 35.195312 3.761719 35.300781 C 5.390625 36.214844 7.023438 37.121094 8.652344 38.03125 C 9.570312 38.519531 10.699219 38.8125 11.710938 38.4375 C 12.605469 38.121094 13.230469 37.21875 13.214844 36.28125 C 13.222656 29.503906 13.210938 22.722656 13.222656 15.941406 C 13.199219 15.640625 13.488281 15.394531 13.785156 15.421875 C 14.566406 15.417969 15.351562 15.410156 16.132812 15.425781 C 16.460938 15.417969 16.6875 15.742188 16.644531 16.042969 C 16.640625 22.867188 16.652344 29.6875 16.640625 36.511719 C 16.640625 38.328125 15.886719 40.308594 14.1875 41.199219 C 12.089844 42.269531 9.5 42.042969 7.429688 41.015625 C 5.636719 40.128906 3.925781 39.085938 2.167969 38.136719 C 0.945312 37.511719 0.0976562 36.203125 0.105469 34.832031 L 0.105469 14.160156 C 0.09375 12.816406 0.898438 11.519531 2.089844 10.886719 C 8.21875 7.464844 14.347656 4.042969 20.476562 0.621094 Z M 20.476562 0.621094 "/>
<path style=" stroke:none;fill-rule:nonzero;fill:rgb(54.901961%,78.431373%,29.411765%);fill-opacity:1;" d="M 25.820312 14.941406 C 28.496094 14.769531 31.355469 14.839844 33.761719 16.144531 C 35.625 17.140625 36.65625 19.234375 36.6875 21.28125 C 36.636719 21.554688 36.34375 21.707031 36.078125 21.6875 C 35.304688 21.6875 34.527344 21.699219 33.753906 21.683594 C 33.421875 21.695312 33.230469 21.398438 33.191406 21.109375 C 32.96875 20.128906 32.429688 19.160156 31.496094 18.6875 C 30.066406 17.980469 28.40625 18.015625 26.847656 18.03125 C 25.710938 18.089844 24.484375 18.1875 23.519531 18.851562 C 22.78125 19.351562 22.554688 20.363281 22.820312 21.179688 C 23.066406 21.765625 23.75 21.953125 24.3125 22.128906 C 27.53125 22.960938 30.945312 22.878906 34.105469 23.972656 C 35.414062 24.421875 36.695312 25.289062 37.140625 26.644531 C 37.726562 28.460938 37.46875 30.628906 36.164062 32.085938 C 35.105469 33.285156 33.5625 33.9375 32.023438 34.292969 C 29.976562 34.742188 27.851562 34.753906 25.773438 34.554688 C 23.820312 34.335938 21.785156 33.828125 20.277344 32.507812 C 18.984375 31.402344 18.355469 29.675781 18.417969 28.011719 C 18.433594 27.730469 18.714844 27.53125 18.988281 27.554688 C 19.769531 27.550781 20.550781 27.546875 21.332031 27.558594 C 21.644531 27.535156 21.875 27.800781 21.890625 28.09375 C 22.035156 29.023438 22.390625 30.003906 23.210938 30.554688 C 24.800781 31.570312 26.792969 31.5 28.609375 31.527344 C 30.113281 31.460938 31.804688 31.441406 33.035156 30.457031 C 33.683594 29.898438 33.875 28.957031 33.699219 28.148438 C 33.507812 27.46875 32.789062 27.148438 32.167969 26.941406 C 28.988281 25.949219 25.535156 26.308594 22.386719 25.183594 C 21.109375 24.738281 19.871094 23.890625 19.378906 22.59375 C 18.695312 20.753906 19.007812 18.480469 20.453125 17.074219 C 21.859375 15.671875 23.890625 15.132812 25.820312 14.941406 Z M 25.820312 14.941406 "/>
</g>
</svg>
